<?xml version="1.0" encoding="UTF-8" standalone="no"?><!-- Created with Inkscape (http://www.inkscape.org/) --><svg xmlns:inkscape="http://www.inkscape.org/namespaces/inkscape" xmlns:sodipodi="http://sodipodi.sourceforge.net/DTD/sodipodi-0.dtd" xmlns="http://www.w3.org/2000/svg" xmlns:svg="http://www.w3.org/2000/svg" width="210mm" height="297mm" viewBox="0 0 210 297" version="1.1" id="svg1" xml:space="preserve" inkscape:version="1.3.2 (091e20e, 2023-11-25, custom)" sodipodi:docname="LOGO.svg"><sodipodi:namedview id="namedview1" pagecolor="#ffffff" bordercolor="#000000" borderopacity="0.25" inkscape:showpageshadow="2" inkscape:pageopacity="0.0" inkscape:pagecheckerboard="0" inkscape:deskcolor="#d1d1d1" inkscape:document-units="mm" inkscape:zoom="1.332716" inkscape:cx="407.8138" inkscape:cy="545.12737" inkscape:window-width="2880" inkscape:window-height="1796" inkscape:window-x="-12" inkscape:window-y="715" inkscape:window-maximized="1" inkscape:current-layer="layer-MC1"><inkscape:page x="0" y="0" width="210" height="297" id="page1" margin="0" bleed="0" inkscape:export-filename="Logo.png" inkscape:export-xdpi="96" inkscape:export-ydpi="96"/><inkscape:page x="220" y="0" width="176.38889" height="176.3889" id="page2" margin="0" bleed="0"/></sodipodi:namedview><defs id="defs1"><clipPath clipPathUnits="userSpaceOnUse" id="clipPath3"><path d="M 0,500 H 500 V 0 H 0 Z" transform="translate(-321.19591,-267.23411)" id="path3"/></clipPath><clipPath clipPathUnits="userSpaceOnUse" id="clipPath5"><path d="M 0,500 H 500 V 0 H 0 Z" transform="translate(-405.46551,-128.94311)" id="path5"/></clipPath><clipPath clipPathUnits="userSpaceOnUse" id="clipPath5-7"><path d="M 0,500 H 500 V 0 H 0 Z" transform="translate(-405.46551,-128.94311)" id="path5-1"/></clipPath></defs><g inkscape:label="Layer 1" inkscape:groupmode="layer" id="layer1"><text xml:space="preserve" style="-inkscape-font-specification: &quot;Auto Techno&quot;; fill: #0497a4; stroke-width: .20627px; font-family: Auto Techno; font-size: 33.0033px; line-height: 3.4" x="114.14148" y="166.98117" id="text1" transform="matrix(1.0648083,0,-0.25702375,0.93913619,0,0)"><tspan sodipodi:role="line" id="tspan1" style="font-variant: normal; -inkscape-font-specification: Molgan; stroke-width: .20627px; font-family: Molgan; font-style: normal; font-weight: normal; font-stretch: normal; line-height: 3.4" x="114.14148" y="166.98117">42DE</tspan></text></g><g id="layer-MC0" inkscape:groupmode="layer" inkscape:label="BACKGROUND" transform="matrix(0.26458333,0,0,0.26458334,220.00001,0)"/><g id="layer-MC1" inkscape:groupmode="layer" inkscape:label="OBJECTS" transform="matrix(0.26458333,0,0,0.26458334,220.00001,0)"><path fill="#67595D" d="m -559.67777,534.06193 c -20.60512,-10.2776 1.06454,-3.59883 -8.58148,15.74021 -9.64603,19.33904 -34.57705,22.51039 -13.97192,32.78789 20.60512,10.2776 12.59128,-7.45587 22.23731,-26.79491 9.64603,-19.33905 20.92246,-11.45508 0.31609,-21.73319 z m 268.29446,321.43993 c 10.46929,-0.8148 20.47691,-3.8739 29.09978,-9.3467 17.13252,-11.0039 27.64198,-30.345 32.10537,-54.28128 4.46345,-23.93628 3.28482,-53.56297 -3.24949,-88.30454 -1.56035,-7.53374 -9.85136,-13.10646 -17.387,-11.54548 -7.64887,1.503 -13.16487,9.67702 -11.66122,17.32775 6.18675,32.26837 6.6149,58.5008 3.18178,77.20165 -3.43312,18.70094 -10.72864,29.29312 -19.23767,34.82286 -8.50964,5.53094 -20.07051,7.09654 -37.39247,2.05141 -17.32187,-5.04502 -39.53863,-16.99037 -64.46794,-37.04413 -33.10505,-26.71896 -65.763,-65.576 -96.75571,-108.05974 88.77043,2.73224 189.61298,-4.03886 268.86299,-29.7728 31.74515,-10.61611 58.59939,-23.5294 78.89261,-38.85297 20.1776,-15.37957 34.600154,-33.62977 37.627774,-55.26383 3.02884,-21.63346 -6.88597,-42.10511 -23.413694,-58.54014 -16.52641,-16.43755 -40.1273,-30.22155 -69.07535,-41.64206 -58.07011,-23.07147 -138.27969,-37.77714 -229.00433,-38.89683 -7.70797,-0.10755 -14.8356,6.97511 -14.94315,14.68305 -0.10816,7.70924 6.97451,14.83679 14.68433,14.94373 87.96181,1.18062 165.1812,15.54465 218.4739,36.66446 26.64573,10.55795 47.13738,23.08022 59.34679,35.20842 12.32264,12.18316 16.53261,22.76485 14.99072,33.63982 -1.54313,10.87427 -9.75721,23.30806 -26.1425,35.69227 -16.44146,12.49999 -40.82284,24.20173 -70.49787,34.12556 -102.7194,27.54183 -188.14498,33.6646 -281.40621,26.10365 -19.35872,-29.20516 -36.12728,-58.70099 -51.80584,-89.80911 47.93838,-101.58545 118.54562,-200.77692 184.94327,-249.74142 20.52286,-15.20741 38.86515,-24.31425 53.53314,-28.06864 14.66613,-3.75377 25.07977,-2.72787 32.79315,1.69439 7.77078,4.30715 13.81963,12.3549 18.14832,26.7329 4.32746,14.37733 6.41915,34.68406 4.08551,60.11389 -0.6834,7.70976 5.71017,15.35452 13.53383,16.09463 7.70973,0.68342 15.35574,-5.70948 16.09524,-13.53502 2.61943,-28.01969 0.87017,-51.60368 -5.01604,-71.21582 -5.94425,-19.4958 -16.88905,-35.01781 -32.66079,-43.74692 -15.59932,-8.78686 -34.7575,-9.8624 -54.54238,-4.77944 -19.78551,5.08111 -40.88771,15.97501 -63.59488,32.68014 -68.29562,50.46128 -134.76672,142.80434 -183.51355,240.53535 -18.96876,-42.38095 -34.54219,-84.36196 -41.82734,-122.20894 -6.12877,-31.80827 -7.07415,-57.57999 -3.64105,-76.28085 3.31738,-18.75707 10.44075,-29.58048 18.71958,-35.225 8.27821,-5.64638 19.55244,-7.49864 36.5282,-2.91217 16.86126,4.52779 38.15779,16.01259 62.62614,35.26151 6.04512,4.8853 15.99701,3.66707 20.76529,-2.43482 4.76897,-6.1031 3.66586,-15.99757 -2.43606,-20.76592 -26.54068,-20.85753 -50.71681,-34.64104 -73.27414,-40.71636 -22.55738,-6.07535 -44.30151,-3.98344 -60.97364,7.25005 -16.67274,11.23472 -26.83658,30.4592 -31.12747,54.33779 -4.23349,23.76356 -2.76755,53.10235 3.70878,87.38374 9.02057,47.33811 29.26271,98.40482 53.53311,149.46694 -10.96388,24.57482 -19.9169,47.42321 -27.77543,71.82358 -18.47149,-4.75757 -37.3443,-7.55775 -52.30696,-13.58355 -26.64697,-10.55865 -47.13861,-23.08091 -59.34739,-35.20721 -12.32326,-12.18506 -16.53199,-22.76615 -14.9901,-33.64103 2.28436,-16.97408 23.37512,-39.6599 66.21623,-58.68669 8.22537,-2.07932 13.39284,-12.43942 9.93279,-20.20212 -3.40265,-7.87771 -14.45049,-11.08998 -21.63681,-6.48009 -47.9592,20.35474 -79.57515,46.84897 -84.37316,80.96882 -3.02884,21.63337 6.88597,42.1051 23.52814,58.59872 16.52766,16.43816 40.12731,30.22164 69.07598,41.64085 15.71192,6.25581 34.81607,10.32128 53.69021,15.13595 -15.07622,55.29945 -24.5429,141.43108 11.21959,178.67454 14.7412,14.2534 35.68715,19.525 57.9474,15.822 22.26094,-3.7042 46.6408,-15.6942 72.85599,-35.10688 7.12977,-4.20535 9.36261,-15.02459 4.2931,-21.57774 -5.01202,-6.66823 -15.9413,-7.52169 -21.97729,-1.76299 -23.85678,17.56902 -44.50217,26.96751 -59.97426,29.45535 -15.35753,2.54652 -24.56523,-0.60889 -32.45427,-8.13718 -23.21732,-34.72458 -19.3081,-95.59406 -2.96381,-148.8252 23.36141,4.75159 50.97866,8.17783 77.5021,10.62425 36.29391,52.60361 75.40214,99.56793 116.85614,132.89316 26.94485,21.77933 51.81026,35.90663 74.65702,42.55753 11.27684,3.3234 23.01215,3.7134 32.79297,3.9909 z M -538.10302,642.8848 c -15.41946,-1.94005 -30.78187,-3.70954 -44.93603,-6.45747 4.9902,-15.19168 9.46343,-29.63518 15.89204,-45.11709 9.45127,17.6517 18.38542,34.61426 28.98781,51.69034 l 0.0574,-0.11517 z" id="path1" style="fill: #0497a4; stroke-width: 1.38303px" sodipodi:nodetypes="sssssccscccscsccccccccccccccccccccccccccccccccccccsccccccccccccccccccccccccccccccccc"/></g></svg>