<svg xmlns="http://www.w3.org/2000/svg" fill="none" height="68" viewBox="0 0 68 68" width="68">
  <rect fill="black" height="68" rx="15.232" width="68"/>
  <path d="M21.1037 14.2218C21.1037 17.1208 18.7536 19.4709 15.8546 19.4709C12.9556 19.4709 10.6055 17.1208 10.6055 14.2218C10.6055 11.3228 12.9556 8.97266 15.8546 8.97266C18.7536 8.97266 21.1037 11.3228 21.1037 14.2218Z" fill="white"/>
  <path d="M57.1232 53.4991C57.1232 56.3981 54.7731 58.7482 51.8741 58.7482C48.9751 58.7482 46.625 56.3981 46.625 53.4991C46.625 50.6001 48.9751 48.25 51.8741 48.25C54.7731 48.25 57.1232 50.6001 57.1232 53.4991Z" fill="white"/>
  <path clip-rule="evenodd" d="M15.8516 46.5903V26.8037C20.4678 26.792 24.5024 24.306 26.6989 20.6018L42.8267 36.728C43.5473 37.4485 44.7793 36.9382 44.7793 35.9193V14.2227C48.6961 14.2227 51.8712 17.3975 51.8712 21.3138V40.7573C51.8642 40.7573 51.8572 40.7573 51.8502 40.7573C47.7522 40.7573 44.1097 42.7074 41.8002 45.7301L24.8961 28.8277C24.1755 28.1072 22.9434 28.6175 22.9434 29.6364V53.6815C19.0267 53.6815 15.8516 50.5067 15.8516 46.5903Z" fill="white" fill-rule="evenodd"/>
</svg>