<?xml version="1.0" encoding="UTF-8"?>
<svg id="Layer_1" xmlns="http://www.w3.org/2000/svg" version="1.1" viewBox="0 0 1080 1080">
  <!-- Generator: Adobe Illustrator 29.8.1, SVG Export Plug-In . SVG Version: 2.1.1 Build 2)  -->
  <defs>
    <style>
      .st0 {
        fill: #44f;
      }
    </style>
  </defs>
  <g>
    <path d="M355.38,463.76h11.67v65c0,10.04-3.39,17.84-10.18,23.41-6.79,5.56-14.93,8.35-24.43,8.35-7.6,0-14.16-1.42-19.68-4.27-5.52-2.85-9.68-6.94-12.48-12.28l10.31-5.83c3.71,7.6,11.08,11.4,22.12,11.4,7.06,0,12.6-1.86,16.62-5.56,4.02-3.71,6.04-8.78,6.04-15.2v-9.63c-5.97,9.05-14.48,13.57-25.51,13.57-9.68,0-17.87-3.44-24.56-10.31-6.7-6.87-10.04-15.24-10.04-25.11s3.35-18.21,10.04-25.04c6.69-6.83,14.88-10.25,24.56-10.25,11.13,0,19.63,4.48,25.51,13.43v-11.67ZM313.99,514.52c4.61,4.61,10.36,6.92,17.23,6.92s12.62-2.31,17.23-6.92c4.61-4.61,6.92-10.36,6.92-17.23s-2.31-12.48-6.92-17.1c-4.61-4.61-10.36-6.92-17.23-6.92s-12.62,2.31-17.23,6.92c-4.61,4.61-6.92,10.31-6.92,17.1s2.31,12.62,6.92,17.23Z"/>
    <path d="M383.06,503.12c1.17,6.06,3.96,10.77,8.35,14.11,4.39,3.35,9.79,5.02,16.22,5.02,8.96,0,15.47-3.3,19.54-9.91l10.04,5.7c-6.6,10.22-16.56,15.33-29.85,15.33-10.77,0-19.52-3.37-26.26-10.11-6.74-6.74-10.11-15.27-10.11-25.58s3.3-18.73,9.91-25.51c6.6-6.79,15.15-10.18,25.65-10.18,9.95,0,18.07,3.51,24.36,10.52,6.29,7.01,9.43,15.45,9.43,25.31,0,1.72-.14,3.48-.41,5.29h-56.86ZM406.54,473.13c-6.33,0-11.58,1.79-15.74,5.36-4.16,3.58-6.74,8.35-7.73,14.32h45.32c-1-6.42-3.53-11.31-7.6-14.66-4.07-3.35-8.82-5.02-14.25-5.02Z"/>
    <path d="M451.86,503.12c1.17,6.06,3.96,10.77,8.35,14.11,4.39,3.35,9.79,5.02,16.22,5.02,8.96,0,15.47-3.3,19.54-9.91l10.04,5.7c-6.6,10.22-16.56,15.33-29.85,15.33-10.77,0-19.52-3.37-26.26-10.11-6.74-6.74-10.11-15.27-10.11-25.58s3.3-18.73,9.91-25.51c6.6-6.79,15.15-10.18,25.65-10.18,9.95,0,18.07,3.51,24.36,10.52,6.29,7.01,9.43,15.45,9.43,25.31,0,1.72-.14,3.48-.41,5.29h-56.86ZM475.34,473.13c-6.33,0-11.58,1.79-15.74,5.36-4.16,3.58-6.74,8.35-7.73,14.32h45.32c-1-6.42-3.53-11.31-7.6-14.66-4.07-3.35-8.82-5.02-14.25-5.02Z"/>
    <path d="M569.92,531.61h-14.66l-30.94-32.12v32.12h-11.81v-94.99h11.81v57.01l29.31-29.87h15.2l-32.43,32.84,33.52,35.01Z"/>
    <path d="M575.76,481.88c0,2.57,1.33,4.62,4,6.17,2.66,1.55,5.84,2.86,9.53,3.95,3.69,1.08,7.39,2.17,11.12,3.27,3.73,1.1,6.89,3.15,9.47,6.16s3.88,6.88,3.88,11.6c0,6.15-2.38,11.08-7.12,14.79-4.75,3.71-10.84,5.56-18.25,5.56-6.6,0-12.26-1.45-16.96-4.34-4.71-2.89-8.05-6.74-10.04-11.54l10.18-5.83c1.09,3.26,3.12,5.83,6.11,7.74,2.99,1.9,6.56,2.85,10.72,2.85,3.89,0,7.1-.74,9.64-2.24,2.53-1.49,3.8-3.82,3.8-6.98,0-2.62-1.32-4.72-3.94-6.3-2.63-1.58-5.78-2.92-9.47-4.03-3.69-1.11-7.4-2.22-11.12-3.34-3.73-1.12-6.91-3.13-9.53-6.02-2.62-2.89-3.94-6.6-3.94-11.13,0-5.88,2.28-10.72,6.85-14.52,4.57-3.8,10.29-5.7,17.17-5.7,5.52,0,10.43,1.24,14.72,3.73,4.3,2.49,7.53,5.95,9.7,10.38l-9.91,5.56c-2.44-5.79-7.28-8.68-14.52-8.68-3.35,0-6.2.77-8.55,2.32-2.35,1.55-3.53,3.74-3.53,6.57Z"/>
    <path d="M330.95,643.38c-10.22,0-18.73-3.41-25.51-10.25-6.79-6.83-10.18-15.31-10.18-25.44s3.39-18.61,10.18-25.44c6.79-6.83,15.29-10.25,25.51-10.25,6.69,0,12.71,1.61,18.05,4.82,5.34,3.21,9.32,7.53,11.94,12.96l-9.91,5.7c-1.72-3.62-4.37-6.51-7.94-8.68-3.57-2.17-7.62-3.26-12.15-3.26-6.79,0-12.46,2.31-17.03,6.92-4.57,4.61-6.85,10.36-6.85,17.23s2.28,12.48,6.85,17.1c4.57,4.61,10.25,6.92,17.03,6.92,4.52,0,8.59-1.06,12.21-3.19,3.62-2.12,6.38-5,8.28-8.62l10.04,5.83c-2.9,5.34-7.06,9.61-12.48,12.82-5.43,3.21-11.45,4.82-18.05,4.82Z"/>
    <path d="M374.92,585.16c3.89-8.41,10.95-12.62,21.17-12.62v12.35c-5.79-.27-10.77,1.27-14.93,4.61-4.16,3.35-6.24,8.73-6.24,16.15v35.96h-11.81v-67.85h11.81v11.4Z"/>
    <path d="M402.06,613.12c1.17,6.06,3.96,10.77,8.35,14.11,4.39,3.35,9.79,5.02,16.22,5.02,8.96,0,15.47-3.3,19.54-9.91l10.04,5.7c-6.6,10.22-16.56,15.33-29.85,15.33-10.77,0-19.52-3.37-26.26-10.11-6.74-6.74-10.11-15.27-10.11-25.58s3.3-18.73,9.91-25.51c6.6-6.79,15.15-10.18,25.65-10.18,9.95,0,18.07,3.51,24.36,10.52,6.29,7.01,9.43,15.45,9.43,25.31,0,1.72-.14,3.48-.41,5.29h-56.86ZM425.54,583.13c-6.33,0-11.58,1.79-15.74,5.36-4.16,3.58-6.74,8.35-7.73,14.32h45.32c-1-6.42-3.53-11.31-7.6-14.66-4.07-3.35-8.82-5.02-14.25-5.02Z"/>
    <path d="M518.76,573.76h11.81v67.85h-11.81v-11.67c-5.88,8.96-14.43,13.43-25.65,13.43-9.5,0-17.6-3.46-24.29-10.38-6.7-6.92-10.04-15.36-10.04-25.31s3.35-18.39,10.04-25.31c6.69-6.92,14.79-10.38,24.29-10.38,11.22,0,19.77,4.48,25.65,13.43v-11.67ZM494.61,631.98c6.87,0,12.62-2.33,17.23-6.99,4.61-4.66,6.92-10.43,6.92-17.3s-2.31-12.64-6.92-17.3c-4.61-4.66-10.36-6.99-17.23-6.99s-12.48,2.33-17.1,6.99c-4.61,4.66-6.92,10.43-6.92,17.3s2.31,12.64,6.92,17.3c4.61,4.66,10.31,6.99,17.1,6.99Z"/>
    <path d="M575.22,585.16h-18.05v36.78c0,3.35.66,5.72,1.97,7.12,1.31,1.4,3.32,2.13,6.04,2.17,2.71.05,6.06-.02,10.04-.2v10.58c-10.31,1.36-17.87.52-22.66-2.51-4.8-3.03-7.19-8.75-7.19-17.17v-36.78h-13.43v-11.4h13.43v-15.47l11.81-3.53v19h18.05v11.4Z"/>
    <path d="M584.99,561.41c-2.26,0-4.16-.77-5.7-2.31-1.54-1.54-2.31-3.39-2.31-5.56s.77-4.05,2.31-5.63c1.54-1.58,3.44-2.38,5.7-2.38s4.02.79,5.56,2.38c1.54,1.58,2.31,3.46,2.31,5.63s-.77,4.03-2.31,5.56c-1.54,1.54-3.39,2.31-5.56,2.31ZM579.02,641.61v-67.85h11.81v67.85h-11.81Z"/>
    <path d="M655.96,633.06c-6.97,6.88-15.43,10.31-25.38,10.31s-18.39-3.44-25.31-10.31c-6.92-6.88-10.38-15.33-10.38-25.38s3.46-18.5,10.38-25.38c6.92-6.87,15.36-10.31,25.31-10.31s18.41,3.44,25.38,10.31c6.96,6.88,10.45,15.33,10.45,25.38s-3.48,18.5-10.45,25.38ZM630.58,631.84c6.79,0,12.49-2.31,17.1-6.92,4.61-4.61,6.92-10.36,6.92-17.23s-2.31-12.62-6.92-17.23-10.31-6.92-17.1-6.92-12.35,2.31-16.96,6.92-6.92,10.36-6.92,17.23,2.31,12.62,6.92,17.23c4.61,4.61,10.27,6.92,16.96,6.92Z"/>
    <path d="M703.99,572c7.96,0,14.34,2.51,19.13,7.53,4.79,5.02,7.19,11.83,7.19,20.42v41.66h-11.81v-40.98c0-5.52-1.49-9.79-4.48-12.82-2.99-3.03-7.1-4.55-12.35-4.55-5.88,0-10.63,1.83-14.25,5.5-3.62,3.66-5.43,9.3-5.43,16.9v35.96h-11.81v-67.85h11.81v9.77c4.79-7.69,12.12-11.53,21.98-11.53Z"/>
    <path d="M746.74,591.88c0,2.57,1.33,4.62,4,6.17,2.66,1.55,5.84,2.86,9.53,3.95,3.68,1.08,7.39,2.17,11.12,3.27,3.73,1.1,6.89,3.15,9.47,6.16s3.88,6.88,3.88,11.6c0,6.15-2.38,11.08-7.12,14.79-4.75,3.71-10.83,5.56-18.25,5.56-6.61,0-12.26-1.45-16.96-4.34-4.71-2.89-8.05-6.74-10.04-11.54l10.18-5.83c1.08,3.26,3.12,5.83,6.11,7.74,2.99,1.9,6.56,2.85,10.72,2.85,3.89,0,7.1-.74,9.63-2.24,2.53-1.49,3.8-3.82,3.8-6.98,0-2.62-1.32-4.72-3.94-6.3-2.63-1.58-5.78-2.92-9.47-4.03-3.69-1.11-7.4-2.22-11.12-3.34-3.73-1.12-6.91-3.13-9.53-6.02-2.62-2.89-3.94-6.6-3.94-11.13,0-5.88,2.28-10.72,6.85-14.52,4.57-3.8,10.29-5.7,17.17-5.7,5.52,0,10.43,1.24,14.72,3.73,4.3,2.49,7.53,5.95,9.7,10.38l-9.91,5.56c-2.44-5.79-7.28-8.68-14.52-8.68-3.35,0-6.2.77-8.55,2.32-2.35,1.55-3.53,3.74-3.53,6.57Z"/>
  </g>
  <g>
    <path class="st0" d="M623.1,531.57v-17.92h161.64v17.92h-161.64Z"/>
    <path class="st0" d="M770.87,501.7c-3.84,0-7.11-1.35-9.81-4.05-2.7-2.7-4.05-5.97-4.05-9.81s1.35-7.11,4.05-9.81c2.7-2.7,5.97-4.05,9.81-4.05s7.29,1.35,9.92,4.05c2.63,2.7,3.95,5.97,3.95,9.81s-1.32,7.11-3.95,9.81c-2.63,2.7-5.94,4.05-9.92,4.05Z"/>
  </g>
</svg>